<svg xmlns="http://www.w3.org/2000/svg" viewBox="0 0 595.28 468"><defs><style>.cls-1,.cls-2{fill:#7d7d7d;}.cls-1{opacity:0.2;}.cls-2{opacity:0.5;}.cls-3{fill:#aaa;}.cls-4,.cls-5,.cls-6{fill:none;stroke:#7d7d7d;stroke-linejoin:round;}.cls-4,.cls-6{stroke-linecap:round;}.cls-4,.cls-5{stroke-width:12px;}.cls-6{stroke-width:8px;}.cls-7{fill:#6d6d6d;}</style></defs><g id="Layer_2" data-name="Layer 2"><g id="Layer_1-2" data-name="Layer 1"><polygon class="cls-1" points="163.94 62.47 219.96 62.47 194.29 193.76 163.94 193.76 163.94 62.47"/><path class="cls-1" d="M246.28,62.47H364L351.7,97.06c-54.35-58.59-95.29,2.82-95.29,2.82Z"/><polygon class="cls-1" points="452.64 62.47 452.64 193.76 421.58 193.76 395.42 62.47 452.64 62.47"/><polygon class="cls-2" points="510.61 193.76 452.65 62.47 452.65 193.76 510.61 193.76"/><polygon class="cls-2" points="105.98 193.76 163.94 62.47 163.94 193.76 105.98 193.76"/><path class="cls-3" d="M595.28,420.36C595.28,446.67,462,468,297.64,468S0,446.67,0,420.36c0-14.6,41-27.66,105.52-36.4v15.88a39.57,39.57,0,0,0,39.57,39.57H470.57a39.58,39.58,0,0,0,39.58-39.57V387C562.8,395.59,595.28,407.37,595.28,420.36Z"/><path class="cls-4" d="M510.61,193.77V399.84A39.58,39.58,0,0,1,471,439.41H145.55A39.58,39.58,0,0,1,106,399.84V193.77Z"/><polygon class="cls-5" points="510.61 193.76 452.65 62.47 452.65 193.76 510.61 193.76"/><polygon class="cls-5" points="105.98 193.76 163.94 62.47 163.94 193.76 105.98 193.76"/><polygon class="cls-5" points="163.94 62.47 219.96 62.47 194.29 193.76 163.94 193.76 163.94 62.47"/><path class="cls-5" d="M246.28,62.47H364L351.7,97.06c-54.35-58.59-95.29,2.82-95.29,2.82Z"/><polygon class="cls-5" points="452.64 62.47 452.64 193.76 421.58 193.76 395.42 62.47 452.64 62.47"/><line class="cls-6" x1="233.82" y1="128.12" x2="270.53" y2="138"/><line class="cls-6" x1="332.53" y1="137.52" x2="369.48" y2="128.6"/><ellipse class="cls-6" cx="308.3" cy="170.67" rx="11.29" ry="18"/><rect class="cls-6" x="246.18" y="193.77" width="123.31" height="54"/><rect class="cls-2" x="246.18" y="193.77" width="123.31" height="54"/><circle class="cls-7" cx="409.76" cy="333" r="16.41"/><circle class="cls-7" cx="204.35" cy="333" r="16.41"/><line class="cls-6" x1="287.47" y1="397.06" x2="332.53" y2="397.06"/><path class="cls-2" d="M169.79,439.41h-24.7a39.57,39.57,0,0,1-39.57-39.57V193.77h24.7V399.84A39.57,39.57,0,0,0,169.79,439.41Z"/><path class="cls-5" d="M421.48,193.76,384.07,6,351.6,97.06c-54.36-58.59-95.3,2.82-95.3,2.82L230.89,6,194.18,193.76Z"/></g></g></svg>