<?xml version="1.0" encoding="UTF-8"?>
<svg xmlns="http://www.w3.org/2000/svg" xmlns:xlink="http://www.w3.org/1999/xlink" viewBox="0 0 48 48" width="48px" height="48px">
<g id="surface279747774">
<path style=" stroke:none;fill-rule:nonzero;fill:rgb(100%,75.686276%,2.745098%);fill-opacity:1;" d="M 47.140625 19.378906 L 45.238281 19.378906 L 45.238281 19.28125 L 24 19.28125 L 24 28.71875 L 37.335938 28.71875 C 35.390625 34.214844 30.164062 38.160156 24 38.160156 C 16.179688 38.160156 9.839844 31.820312 9.839844 24 C 9.839844 16.179688 16.179688 9.839844 24 9.839844 C 27.609375 9.839844 30.894531 11.203125 33.394531 13.425781 L 40.070312 6.75 C 35.855469 2.824219 30.214844 0.398438 24 0.398438 C 10.96875 0.398438 0.398438 10.96875 0.398438 24 C 0.398438 37.03125 10.96875 47.601562 24 47.601562 C 37.03125 47.601562 47.601562 37.03125 47.601562 24 C 47.601562 22.417969 47.4375 20.871094 47.140625 19.378906 Z M 47.140625 19.378906 "/>
<path style=" stroke:none;fill-rule:nonzero;fill:rgb(100%,23.921569%,0%);fill-opacity:1;" d="M 3.121094 13.015625 L 10.875 18.703125 C 12.972656 13.507812 18.054688 9.839844 24 9.839844 C 27.609375 9.839844 30.894531 11.203125 33.394531 13.425781 L 40.070312 6.75 C 35.855469 2.824219 30.214844 0.398438 24 0.398438 C 14.933594 0.398438 7.074219 5.519531 3.121094 13.015625 Z M 3.121094 13.015625 "/>
<path style=" stroke:none;fill-rule:nonzero;fill:rgb(29.803923%,68.627453%,31.37255%);fill-opacity:1;" d="M 24 47.601562 C 30.097656 47.601562 35.636719 45.265625 39.824219 41.472656 L 32.519531 35.292969 C 30.148438 37.085938 27.203125 38.160156 24 38.160156 C 17.863281 38.160156 12.648438 34.246094 10.6875 28.785156 L 2.988281 34.714844 C 6.894531 42.355469 14.828125 47.601562 24 47.601562 Z M 24 47.601562 "/>
<path style=" stroke:none;fill-rule:nonzero;fill:rgb(9.803922%,46.27451%,82.352942%);fill-opacity:1;" d="M 47.140625 19.378906 L 45.238281 19.378906 L 45.238281 19.28125 L 24 19.28125 L 24 28.71875 L 37.335938 28.71875 C 36.402344 31.359375 34.703125 33.636719 32.515625 35.292969 C 32.515625 35.292969 32.515625 35.292969 32.519531 35.292969 L 39.824219 41.472656 C 39.304688 41.941406 47.601562 35.800781 47.601562 24 C 47.601562 22.417969 47.4375 20.871094 47.140625 19.378906 Z M 47.140625 19.378906 "/>
</g>
</svg>
