<?xml version="1.0" encoding="UTF-8"?>
<svg xmlns="http://www.w3.org/2000/svg" xmlns:xlink="http://www.w3.org/1999/xlink" viewBox="0 0 48 48" width="48px" height="48px">
<g id="surface280592964">
<path style=" stroke:none;fill-rule:nonzero;fill:rgb(1.176471%,60.784316%,89.803922%);fill-opacity:1;" d="M 24 0.441406 C 10.988281 0.441406 0.441406 10.988281 0.441406 24 C 0.441406 37.011719 10.988281 47.558594 24 47.558594 C 37.011719 47.558594 47.558594 37.011719 47.558594 24 C 47.558594 10.988281 37.011719 0.441406 24 0.441406 Z M 24 0.441406 "/>
<path style=" stroke:none;fill-rule:nonzero;fill:rgb(100%,100%,100%);fill-opacity:1;" d="M 27.1875 30.246094 L 33.285156 30.246094 L 34.242188 24.050781 L 27.1875 24.050781 L 27.1875 20.664062 C 27.1875 18.09375 28.027344 15.8125 30.4375 15.8125 L 34.304688 15.8125 L 34.304688 10.40625 C 33.625 10.3125 32.1875 10.113281 29.472656 10.113281 C 23.800781 10.113281 20.476562 13.109375 20.476562 19.929688 L 20.476562 24.050781 L 14.648438 24.050781 L 14.648438 30.246094 L 20.476562 30.246094 L 20.476562 47.269531 C 21.628906 47.441406 22.800781 47.558594 24 47.558594 C 25.085938 47.558594 26.144531 47.460938 27.1875 47.320312 Z M 27.1875 30.246094 "/>
</g>
</svg>
